<svg xmlns="http://www.w3.org/2000/svg" xmlns:xlink="http://www.w3.org/1999/xlink" id="Layer_2" data-name="Layer 2" viewBox="0 0 150.51 112.54"><defs><linearGradient id="linear-gradient" x1="53.27" x2="93.27" y1="10935.02" y2="10935.02" gradientTransform="matrix(1 0 0 -1 0 10979.37)" gradientUnits="userSpaceOnUse"><stop offset="0" stop-color="#29abe2"/><stop offset="1" stop-color="#2e3192"/></linearGradient><linearGradient xlink:href="#linear-gradient" id="linear-gradient-2" x1="33.3" x2="91.3" y1="10908.88" y2="10908.88"/><linearGradient xlink:href="#linear-gradient" id="linear-gradient-3" x1="17.61" x2="150.51" y1="10931.64" y2="10931.64"/><style>.cls-6{fill:#29abe2}</style></defs><g id="Layer_1-2" data-name="Layer 1"><path d="M56.12 87v-.01" style="fill:none;stroke:#ed1c24;stroke-miterlimit:10"/><circle cx="25.3" cy="83.99" r="5.09" style="fill:#0071bc"/><path d="M93.27 58.35a8 8 0 0 1-8 8c-3.72 0-6-1-8-4l-9 4.68v.32c-1 3-3.21 5-6.5 5a6.5 6.5 0 1 1 5.44-10.06l10.06-3.94a8 8 0 0 1 2.56-5.87L65.08 31.39a8 8 0 1 1 3.48-3.76l15.21 22.18.5.54h1a8 8 0 0 1 8 8Z" style="fill:url(#linear-gradient)"/><circle cx="34.3" cy="29.99" r="6.5" class="cls-6"/><ellipse cx="25.42" cy="56.03" class="cls-6" rx="7.03" ry="7.15" transform="rotate(-75.93 25.43 56.03)"/><ellipse cx="5.81" cy="39.99" class="cls-6" rx="4.97" ry="4.61" transform="rotate(-75.93 5.8 40)"/><ellipse cx="5.71" cy="68.84" class="cls-6" rx="5.82" ry="5.7" transform="rotate(-75.93 5.7 68.84)"/><ellipse cx="27.16" cy="106.59" class="cls-6" rx="5.94" ry="6.06" transform="rotate(-75.93 27.16 106.6)"/><path d="M91.3 81.99a6 6 0 0 1-11.89 1.15l-.11 1.22H68.03a6.5 6.5 0 0 1-6.23 4.63l-4.5 8c.89.97 1 2.08 1 3.5a5.5 5.5 0 1 1-5.5-5.5L57.12 87a6.45 6.45 0 0 1-1.82-4.51l-10.65-6.02a7 7 0 1 1-4.35-12.48l5.09-11.22a9.43 9.43 0 0 1-5.09-8.28c0-5.25 4.48-9.5 10-9.5s10 4.25 10 9.5-4.48 9.5-10 9.5l-5.46 11.68a6.95 6.95 0 0 1 2.46 5.32v2.18l9.81 4.82a6.5 6.5 0 0 1 10.61 1.82h11.99a6.01 6.01 0 0 1 11.59 2.18Z" style="fill:url(#linear-gradient-2)"/><path d="M128.18 35.26v-.6C128.18 15.52 113.64 0 95.7 0 83.17 0 72.3 7.57 66.88 18.66a7.96 7.96 0 0 1 1.67 8.97l15.21 22.18.5.54h1a8 8 0 1 1 0 16c-3.72 0-6-1-8-4l-9 4.68v.32c-1 3-3.21 5-6.5 5a6.5 6.5 0 1 1 5.44-10.06l10.06-3.94a8 8 0 0 1 2.56-5.87L65.07 31.39a8 8 0 0 1-11.81-7.04v-.25c-4.93.1-9.44 1.99-13 5.08l.02.31a6.5 6.5 0 0 1-5.23 6.37 23.78 23.78 0 0 0-2.55 12.38 22.01 22.01 0 0 0-3.46 1.75 7.05 7.05 0 0 1 3.3 7.76 7.1 7.1 0 0 1-8.65 5.08 7.23 7.23 0 0 1-3.79-2.38 25.55 25.55 0 0 0-2.3 10.64c0 4.2 1 8.15 2.75 11.6A5.09 5.09 0 1 1 25 89.05a22.03 22.03 0 0 0 15.45 6.42h10.04c.7-.32 1.47-.5 2.28-.5l4.32-7.99a6.45 6.45 0 0 1-1.82-4.51l-10.65-6.02a7 7 0 1 1-4.35-12.48l5.09-11.22a9.43 9.43 0 0 1-5.09-8.28c0-5.25 4.48-9.5 10-9.5s10 4.25 10 9.5-4.48 9.5-10 9.5l-5.46 11.68a6.95 6.95 0 0 1 2.46 5.32v2.18l9.81 4.82a6.5 6.5 0 0 1 10.61 1.82h11.99a6.01 6.01 0 0 1 11.59 2.18 6 6 0 0 1-11.89 1.15l-.11 1.22H68a6.5 6.5 0 0 1-6.23 4.63l-3.66 6.5h63.83c15.78 0 28.56-13.65 28.56-30.48 0-14.56-9.57-26.73-22.36-29.76l.03.03Z" style="fill:url(#linear-gradient-3)"/></g></svg>