<?xml version="1.0" encoding="UTF-8"?>
<svg id="Layer_2" data-name="Layer 2" xmlns="http://www.w3.org/2000/svg" xmlns:xlink="http://www.w3.org/1999/xlink" viewBox="0 0 51 51">
  <defs>
    <style>
      .cls-1 {
        fill: url(#linear-gradient);
      }
    </style>
    <linearGradient id="linear-gradient" x1="0" y1="25.5" x2="51" y2="25.5" gradientUnits="userSpaceOnUse">
      <stop offset="0" stop-color="#3fa9f5"/>
      <stop offset="1" stop-color="#bf008c"/>
    </linearGradient>
  </defs>
  <g id="Layer_1-2" data-name="Layer 1">
    <path class="cls-1" d="m36,23.12h-9.72v-2h9.72v2Zm0,4.12h-5.52v2h5.52v-2Zm10.32-11.74h-6.32v2h6.32v-2Zm0,9.25h-6.32v2h6.32v-2Zm0,9h-6.32v2h6.32v-2Zm-10.57,6.25h-2v6.91h2v-6.91Zm0-35.91h-2v6.91h2v-6.91Zm-9,35.91h-2v6.91h2v-6.91Zm0-35.91h-2v6.91h2v-6.91Zm-9.5,35.91h-2v6.91h2v-6.91Zm0-35.91h-2v6.91h2v-6.91Zm-6.25,29.66h-6.91v2h6.91v-2Zm0-9.5h-6.91v2h6.91v-2Zm0-9h-6.91v2h6.91v-2Zm37.5-1.25c-1.38,0-2.5,1.12-2.5,2.5s1.12,2.5,2.5,2.5,2.5-1.12,2.5-2.5-1.12-2.5-2.5-2.5Zm0,9.25c-1.38,0-2.5,1.12-2.5,2.5s1.12,2.5,2.5,2.5,2.5-1.12,2.5-2.5-1.12-2.5-2.5-2.5Zm0,9c-1.38,0-2.5,1.12-2.5,2.5s1.12,2.5,2.5,2.5,2.5-1.12,2.5-2.5-1.12-2.5-2.5-2.5Zm-46,0c-1.38,0-2.5,1.12-2.5,2.5s1.12,2.5,2.5,2.5,2.5-1.12,2.5-2.5-1.12-2.5-2.5-2.5Zm0-9.5c-1.38,0-2.5,1.12-2.5,2.5s1.12,2.5,2.5,2.5,2.5-1.12,2.5-2.5-1.12-2.5-2.5-2.5Zm0-9c-1.38,0-2.5,1.12-2.5,2.5s1.12,2.5,2.5,2.5,2.5-1.12,2.5-2.5-1.12-2.5-2.5-2.5Zm32.25,32.25c-1.38,0-2.5,1.12-2.5,2.5s1.12,2.5,2.5,2.5,2.5-1.12,2.5-2.5-1.12-2.5-2.5-2.5Zm-9,0c-1.38,0-2.5,1.12-2.5,2.5s1.12,2.5,2.5,2.5,2.5-1.12,2.5-2.5-1.12-2.5-2.5-2.5ZM25.75,0c-1.38,0-2.5,1.12-2.5,2.5s1.12,2.5,2.5,2.5,2.5-1.12,2.5-2.5-1.12-2.5-2.5-2.5Zm-9.5,0c-1.38,0-2.5,1.12-2.5,2.5s1.12,2.5,2.5,2.5,2.5-1.12,2.5-2.5-1.12-2.5-2.5-2.5Zm18.5,0c-1.38,0-2.5,1.12-2.5,2.5s1.12,2.5,2.5,2.5,2.5-1.12,2.5-2.5-1.12-2.5-2.5-2.5Zm-18.5,46c-1.38,0-2.5,1.12-2.5,2.5s1.12,2.5,2.5,2.5,2.5-1.12,2.5-2.5-1.12-2.5-2.5-2.5Zm20.75-13.5v-14c0-2.21-1.79-4-4-4h-15c-2.21,0-4,1.79-4,4v14c0,2.21,1.79,4,4,4h15c2.21,0,4-1.79,4-4Zm-4-16c1.1,0,2,.9,2,2v14c0,1.1-.9,2-2,2h-15c-1.1,0-2-.9-2-2v-14c0-1.1.9-2,2-2h15Zm8.5,19V15.5c0-3.31-2.69-6-6-6H15.5c-3.31,0-6,2.69-6,6v20c0,3.31,2.69,6,6,6h20c3.31,0,6-2.69,6-6Zm-6-24c2.21,0,4,1.79,4,4v20c0,2.21-1.79,4-4,4H15.5c-2.21,0-4-1.79-4-4V15.5c0-2.21,1.79-4,4-4h20Z"/>
  </g>
</svg>