<svg width="1257" height="1257" viewBox="0 0 1257 1257" fill="none" xmlns="http://www.w3.org/2000/svg">
<circle cx="628.5" cy="628.5" r="628.5" fill="#010027"/>
<path d="M922 322V429.64H504.537C470.302 429.64 442.556 457.407 442.556 491.67V881.837L335 829.622V449.708C335 379.177 392.132 322 462.609 322H922Z" fill="#6A94FF"/>
<path d="M586.571 526.333C554.341 526.333 528.236 552.459 528.236 584.714V921.718L560.612 935H721.472C739.702 935 772.516 909.458 772.516 909.458C772.516 909.458 863.665 825.536 885.54 807.292C907.416 789.048 922 737.964 922 737.964V526.333H586.571ZM812.621 716.071L693.981 831.593H637.615V638.498H812.621V716.071Z" fill="#6A94FF"/>
</svg>
