<svg width="587" height="613" viewBox="0 0 587 613" fill="none" xmlns="http://www.w3.org/2000/svg">
<path d="M587 0V107.64H169.537C135.302 107.64 107.556 135.407 107.556 169.67V559.837L0 507.622V127.708C0 57.1768 57.1322 0 127.609 0H587Z" fill="#6A94FF"/>
<path d="M251.571 204.333C219.341 204.333 193.236 230.459 193.236 262.714V599.718L225.612 613H386.472C404.702 613 437.516 587.458 437.516 587.458C437.516 587.458 528.665 503.536 550.54 485.292C572.416 467.048 587 415.964 587 415.964V204.333H251.571ZM477.621 394.071L358.982 509.593H302.615V316.498H477.621V394.071Z" fill="#6A94FF"/>
</svg>
